{"title":"Hello.Murder.DVDRip.XviD.FEEL-FREE","uid":5691211,"size":1060381354,"categoryP":"video","categoryS":"movies","magnet":"?xt=urn:btih:4b61f4e423db159d29f5d4f9dcde2977a462be43&amp;dn=Hello.Murder.DVDRip.XviD.FEEL-FREE&amp;tr=udp%3A%2F%2Ftracker.openbittorrent.com%3A80&amp;tr=udp%3A%2F%2Fopen.demonii.com%3A1337&amp;tr=udp%3A%2F%2Ftracker.coppersurfer.tk%3A6969&amp;tr=udp%3A%2F%2Fexodus.desync.com%3A6969","seeders":0,"leechers":0,"uploader":"hiest","files":12,"time":1279097082,"description":"Genre:Comedy, Thriller\nLanguage:Korean\nIMDb:http://asiandb.com/browse/movie_detail.php?code=7180\nSubtitles:English\nEncoder: Tony2\n...........................................\nGeneral\nComplete name : Hello.Murder.DVDRip.XviD.FEEL-FREE\nFormat : AVI\nFormat/Info : Audio Video Interleave\nFile size : 476 MiB\nDuration : 49mn 33s\nOverall bit rate : 1 341 Kbps\n...........................................\nVideo\nFormat : xvid\nCodec ID : xvid\nDuration : 49mn 33s\nBit rate : 1 201 Kbps\nWidth : 720 pixels\nHeight : 304 pixels\nDisplay aspect ratio : 2.35:1\nFrame rate : 23.976 fps\nResolution : 24 bits\nBits/(Pixel*Frame) : 0.229\nStream size : 426 MiB (90%)\n.............................................\nAudio\nID : 1\nFormat : MPEG Audio\nFormat version : Version 1\nFormat profile : Layer 3\nCodec ID : 55\nCodec ID/Hint : MP3\nDuration : 49mn 33s\nBit rate mode : Constant\nBit rate : 128 Kbps\nChannel(s) : 2 channels\nSampling rate : 48.0 KHz\nResolution : 16 bits\nStream size : 45.4 MiB (10%)\nAlignment : Aligned on interleaves\nInterleave, duration : 24 ms (0.58 video frame)\nInterleave, preload duration : 24 ms\nWriting library : LAME3.97\n............................................\nPlot:\nRookie detective Jeong-Min (Kim Dong-Wuk) finds difficulties with his new job. His boss doesn't like him, he has to secretly prepare for a public service exam, and the local residents are up in arms over a serial killer that the police can't catch. A protest is then organized in front of the police station by the local residents. To Jeong-Min's horror, his own mother leads the protest as she works as the general affairs manager for the women's association. The residents are particularly peeved that the serial killer is causing the value of their homes to drop. Jeong-Min then decides that he will catch the serial killer once and for all. \n...................................................","torrent":{"xt":"urn:btih:4b61f4e423db159d29f5d4f9dcde2977a462be43","amp;dn":"Hello.Murder.DVDRip.XviD.FEEL-FREE","amp;tr":["udp%3A%2F%2Ftracker.openbittorrent.com%3A80","udp%3A%2F%2Fopen.demonii.com%3A1337","udp%3A%2F%2Ftracker.coppersurfer.tk%3A6969","udp%3A%2F%2Fexodus.desync.com%3A6969"],"infoHash":"4b61f4e423db159d29f5d4f9dcde2977a462be43","infoHashBuffer":{"type":"Buffer","data":[75,97,244,228,35,219,21,157,41,245,212,249,220,222,41,119,164,98,190,67]},"announce":[],"urlList":[]}}